<svg xmlns="http://www.w3.org/2000/svg">
  <symbol id="time" viewBox="0 0 96 96">
    <path d="M48,64.81a6.48,6.48,0,0,1-3.65-1.65A6.37,6.37,0,0,0,42.27,62a6.37,6.37,0,0,0-2.47.31,6.35,6.35,0,0,1-3.92.12,6.4,6.4,0,0,1-2.71-2.9,6.49,6.49,0,0,0-1.49-1.92,6.31,6.31,0,0,0-2.37-.65,6.32,6.32,0,0,1-3.69-1.4,6.32,6.32,0,0,1-1.4-3.69,6.31,6.31,0,0,0-.65-2.37A6.36,6.36,0,0,0,21.65,48a6.4,6.4,0,0,1-2.9-2.71,6.28,6.28,0,0,1,.13-3.92,6.49,6.49,0,0,0,.3-2.46A6.13,6.13,0,0,0,18,36.8a6.44,6.44,0,0,1-1.64-3.65A6.47,6.47,0,0,1,18,29.5a6.1,6.1,0,0,0,1.19-2.08,6.54,6.54,0,0,0-.3-2.47A6.25,6.25,0,0,1,18.75,21a6.42,6.42,0,0,1,2.9-2.72,6.36,6.36,0,0,0,1.92-1.49,6.49,6.49,0,0,0,.66-2.37,6.25,6.25,0,0,1,1.39-3.69,6.31,6.31,0,0,1,3.69-1.39,6.49,6.49,0,0,0,2.37-.66A6.36,6.36,0,0,0,33.17,6.8a6.4,6.4,0,0,1,2.71-2.9A6.28,6.28,0,0,1,39.8,4a6.32,6.32,0,0,0,2.47.3,6.32,6.32,0,0,0,2.08-1.18A6.42,6.42,0,0,1,48,1.5a6.42,6.42,0,0,1,3.65,1.65,6.32,6.32,0,0,0,2.08,1.18A6.34,6.34,0,0,0,56.2,4a6.28,6.28,0,0,1,3.92-.13,6.4,6.4,0,0,1,2.71,2.9,6.36,6.36,0,0,0,1.49,1.92,6.49,6.49,0,0,0,2.37.66,6.31,6.31,0,0,1,3.69,1.39,6.32,6.32,0,0,1,1.4,3.69,6.2,6.2,0,0,0,.65,2.37,6.21,6.21,0,0,0,1.92,1.49A6.42,6.42,0,0,1,77.25,21,6.25,6.25,0,0,1,77.12,25a6.54,6.54,0,0,0-.3,2.47A6.1,6.1,0,0,0,78,29.5a6.47,6.47,0,0,1,1.64,3.65A6.44,6.44,0,0,1,78,36.8a6.13,6.13,0,0,0-1.19,2.09,6.49,6.49,0,0,0,.3,2.46,6.28,6.28,0,0,1,.13,3.92A6.4,6.4,0,0,1,74.35,48a6.22,6.22,0,0,0-1.92,1.5,6.37,6.37,0,0,0-.66,2.37,6.22,6.22,0,0,1-1.39,3.68,6.32,6.32,0,0,1-3.69,1.4,6.31,6.31,0,0,0-2.37.65,6.49,6.49,0,0,0-1.49,1.92,6.4,6.4,0,0,1-2.71,2.9,6.35,6.35,0,0,1-3.92-.12A6.37,6.37,0,0,0,53.73,62a6.37,6.37,0,0,0-2.08,1.19A6.48,6.48,0,0,1,48,64.81Zm-6.19-4.88a4.08,4.08,0,0,1,.85.08,7.5,7.5,0,0,1,2.87,1.54A5.05,5.05,0,0,0,48,62.81a5.05,5.05,0,0,0,2.47-1.26A7.5,7.5,0,0,1,53.34,60a7.87,7.87,0,0,1,3.33.32,4.9,4.9,0,0,0,2.68.23,5,5,0,0,0,1.77-2.09,7.78,7.78,0,0,1,2.09-2.55,7.83,7.83,0,0,1,3.17-1A4.92,4.92,0,0,0,69,54.12a5,5,0,0,0,.83-2.58,7.72,7.72,0,0,1,1-3.18,7.6,7.6,0,0,1,2.54-2.08A5,5,0,0,0,75.4,44.5a5,5,0,0,0-.22-2.68,7.68,7.68,0,0,1-.32-3.32,7.58,7.58,0,0,1,1.53-2.88,5,5,0,0,0,1.26-2.47,5,5,0,0,0-1.26-2.47,7.62,7.62,0,0,1-1.53-2.87,7.74,7.74,0,0,1,.32-3.33,5,5,0,0,0,.22-2.68A5,5,0,0,0,73.32,20a7.56,7.56,0,0,1-2.55-2.09,7.63,7.63,0,0,1-1-3.17A4.94,4.94,0,0,0,69,12.19a5,5,0,0,0-2.59-.84,7.81,7.81,0,0,1-3.17-1,7.89,7.89,0,0,1-2.09-2.55,4.92,4.92,0,0,0-1.77-2.09A5,5,0,0,0,56.67,6a7.89,7.89,0,0,1-3.33.33,7.64,7.64,0,0,1-2.87-1.54A5,5,0,0,0,48,3.5a5,5,0,0,0-2.47,1.26A7.61,7.61,0,0,1,42.65,6.3,7.86,7.86,0,0,1,39.33,6a5,5,0,0,0-2.68-.22,5,5,0,0,0-1.77,2.09,7.75,7.75,0,0,1-2.09,2.54,7.67,7.67,0,0,1-3.17,1,5.1,5.1,0,0,0-2.59.83,5,5,0,0,0-.83,2.59,7.63,7.63,0,0,1-1,3.17A7.75,7.75,0,0,1,22.69,20,5,5,0,0,0,20.6,21.8a5,5,0,0,0,.22,2.68,7.74,7.74,0,0,1,.32,3.33,7.62,7.62,0,0,1-1.53,2.87,5,5,0,0,0-1.26,2.47,5,5,0,0,0,1.26,2.47,7.58,7.58,0,0,1,1.53,2.88,7.68,7.68,0,0,1-.32,3.32,5,5,0,0,0-.22,2.68,4.89,4.89,0,0,0,2.08,1.77,7.68,7.68,0,0,1,2.55,2.09,7.67,7.67,0,0,1,1,3.18A5,5,0,0,0,27,54.12a4.92,4.92,0,0,0,2.59.83,7.67,7.67,0,0,1,3.17,1,7.78,7.78,0,0,1,2.09,2.55,4.89,4.89,0,0,0,1.77,2.08,4.88,4.88,0,0,0,2.68-.22A10.6,10.6,0,0,1,41.81,59.93Z"></path>
    <path d="M48,54.73A21.58,21.58,0,1,1,69.58,33.15,21.6,21.6,0,0,1,48,54.73Zm0-41.15A19.58,19.58,0,1,0,67.58,33.15,19.6,19.6,0,0,0,48,13.58Z"></path>
    <path d="M54.34,43.13a1,1,0,0,1-.46-.11l-5.75-3-5.74,3a1,1,0,0,1-1.06-.08,1,1,0,0,1-.39-1L42,35.57,37.38,31a1,1,0,0,1,.56-1.7l6.42-.93,2.87-5.83a1,1,0,0,1,1.8,0L51.9,28.4l6.42.93a1,1,0,0,1,.56,1.7l-4.65,4.54L55.33,42a1,1,0,0,1-.4,1A1,1,0,0,1,54.34,43.13ZM40.23,31l3.58,3.48a1,1,0,0,1,.28.89l-.84,4.91L47.67,38a1,1,0,0,1,.93,0L53,40.3l-.84-4.91a1,1,0,0,1,.29-.89L56,31l-4.94-.72a1,1,0,0,1-.75-.55l-2.21-4.47-2.21,4.47a1,1,0,0,1-.75.55Z"></path>
    <path d="M55.53,94.5l-.22,0a1,1,0,0,1-.75-.75L47.58,64a1,1,0,0,1,2-.45L56,91.25l6-7.64a1,1,0,0,1,1.16-.3L72.19,87,63.66,56.62a1,1,0,0,1,.7-1.24,1,1,0,0,1,1.23.7l9.08,32.41a1,1,0,0,1-1.35,1.19L63.17,85.45l-6.85,8.67A1,1,0,0,1,55.53,94.5Z"></path>
    <path d="M44.48,85.39A1,1,0,0,1,43.7,85l-6.92-8.67L26.35,81a1,1,0,0,1-1.06-.16,1,1,0,0,1-.31-1l6.29-23.33A1,1,0,0,1,33.2,57l-5.74,21.3,9.21-4.1a1,1,0,0,1,1.19.29l6.06,7.58,3.66-18.54a1,1,0,0,1,2,.39L45.46,84.59a1,1,0,0,1-.74.77A1,1,0,0,1,44.48,85.39Z"></path>
  </symbol>
  <symbol id="garant" viewBox="0 0 96 96">
    <path d="M48,64.81a6.48,6.48,0,0,1-3.65-1.65A6.37,6.37,0,0,0,42.27,62a6.37,6.37,0,0,0-2.47.31,6.35,6.35,0,0,1-3.92.12,6.4,6.4,0,0,1-2.71-2.9,6.49,6.49,0,0,0-1.49-1.92,6.31,6.31,0,0,0-2.37-.65,6.32,6.32,0,0,1-3.69-1.4,6.32,6.32,0,0,1-1.4-3.69,6.31,6.31,0,0,0-.65-2.37A6.36,6.36,0,0,0,21.65,48a6.4,6.4,0,0,1-2.9-2.71,6.28,6.28,0,0,1,.13-3.92,6.49,6.49,0,0,0,.3-2.46A6.13,6.13,0,0,0,18,36.8a6.44,6.44,0,0,1-1.64-3.65A6.47,6.47,0,0,1,18,29.5a6.1,6.1,0,0,0,1.19-2.08,6.54,6.54,0,0,0-.3-2.47A6.25,6.25,0,0,1,18.75,21a6.42,6.42,0,0,1,2.9-2.72,6.36,6.36,0,0,0,1.92-1.49,6.49,6.49,0,0,0,.66-2.37,6.25,6.25,0,0,1,1.39-3.69,6.31,6.31,0,0,1,3.69-1.39,6.49,6.49,0,0,0,2.37-.66A6.36,6.36,0,0,0,33.17,6.8a6.4,6.4,0,0,1,2.71-2.9A6.28,6.28,0,0,1,39.8,4a6.32,6.32,0,0,0,2.47.3,6.32,6.32,0,0,0,2.08-1.18A6.42,6.42,0,0,1,48,1.5a6.42,6.42,0,0,1,3.65,1.65,6.32,6.32,0,0,0,2.08,1.18A6.34,6.34,0,0,0,56.2,4a6.28,6.28,0,0,1,3.92-.13,6.4,6.4,0,0,1,2.71,2.9,6.36,6.36,0,0,0,1.49,1.92,6.49,6.49,0,0,0,2.37.66,6.31,6.31,0,0,1,3.69,1.39,6.32,6.32,0,0,1,1.4,3.69,6.2,6.2,0,0,0,.65,2.37,6.21,6.21,0,0,0,1.92,1.49A6.42,6.42,0,0,1,77.25,21,6.25,6.25,0,0,1,77.12,25a6.54,6.54,0,0,0-.3,2.47A6.1,6.1,0,0,0,78,29.5a6.47,6.47,0,0,1,1.64,3.65A6.44,6.44,0,0,1,78,36.8a6.13,6.13,0,0,0-1.19,2.09,6.49,6.49,0,0,0,.3,2.46,6.28,6.28,0,0,1,.13,3.92A6.4,6.4,0,0,1,74.35,48a6.22,6.22,0,0,0-1.92,1.5,6.37,6.37,0,0,0-.66,2.37,6.22,6.22,0,0,1-1.39,3.68,6.32,6.32,0,0,1-3.69,1.4,6.31,6.31,0,0,0-2.37.65,6.49,6.49,0,0,0-1.49,1.92,6.4,6.4,0,0,1-2.71,2.9,6.35,6.35,0,0,1-3.92-.12A6.37,6.37,0,0,0,53.73,62a6.37,6.37,0,0,0-2.08,1.19A6.48,6.48,0,0,1,48,64.81Zm-6.19-4.88a4.08,4.08,0,0,1,.85.08,7.5,7.5,0,0,1,2.87,1.54A5.05,5.05,0,0,0,48,62.81a5.05,5.05,0,0,0,2.47-1.26A7.5,7.5,0,0,1,53.34,60a7.87,7.87,0,0,1,3.33.32,4.9,4.9,0,0,0,2.68.23,5,5,0,0,0,1.77-2.09,7.78,7.78,0,0,1,2.09-2.55,7.83,7.83,0,0,1,3.17-1A4.92,4.92,0,0,0,69,54.12a5,5,0,0,0,.83-2.58,7.72,7.72,0,0,1,1-3.18,7.6,7.6,0,0,1,2.54-2.08A5,5,0,0,0,75.4,44.5a5,5,0,0,0-.22-2.68,7.68,7.68,0,0,1-.32-3.32,7.58,7.58,0,0,1,1.53-2.88,5,5,0,0,0,1.26-2.47,5,5,0,0,0-1.26-2.47,7.62,7.62,0,0,1-1.53-2.87,7.74,7.74,0,0,1,.32-3.33,5,5,0,0,0,.22-2.68A5,5,0,0,0,73.32,20a7.56,7.56,0,0,1-2.55-2.09,7.63,7.63,0,0,1-1-3.17A4.94,4.94,0,0,0,69,12.19a5,5,0,0,0-2.59-.84,7.81,7.81,0,0,1-3.17-1,7.89,7.89,0,0,1-2.09-2.55,4.92,4.92,0,0,0-1.77-2.09A5,5,0,0,0,56.67,6a7.89,7.89,0,0,1-3.33.33,7.64,7.64,0,0,1-2.87-1.54A5,5,0,0,0,48,3.5a5,5,0,0,0-2.47,1.26A7.61,7.61,0,0,1,42.65,6.3,7.86,7.86,0,0,1,39.33,6a5,5,0,0,0-2.68-.22,5,5,0,0,0-1.77,2.09,7.75,7.75,0,0,1-2.09,2.54,7.67,7.67,0,0,1-3.17,1,5.1,5.1,0,0,0-2.59.83,5,5,0,0,0-.83,2.59,7.63,7.63,0,0,1-1,3.17A7.75,7.75,0,0,1,22.69,20,5,5,0,0,0,20.6,21.8a5,5,0,0,0,.22,2.68,7.74,7.74,0,0,1,.32,3.33,7.62,7.62,0,0,1-1.53,2.87,5,5,0,0,0-1.26,2.47,5,5,0,0,0,1.26,2.47,7.58,7.58,0,0,1,1.53,2.88,7.68,7.68,0,0,1-.32,3.32,5,5,0,0,0-.22,2.68,4.89,4.89,0,0,0,2.08,1.77,7.68,7.68,0,0,1,2.55,2.09,7.67,7.67,0,0,1,1,3.18A5,5,0,0,0,27,54.12a4.92,4.92,0,0,0,2.59.83,7.67,7.67,0,0,1,3.17,1,7.78,7.78,0,0,1,2.09,2.55,4.89,4.89,0,0,0,1.77,2.08,4.88,4.88,0,0,0,2.68-.22A10.6,10.6,0,0,1,41.81,59.93Z"></path>
    <path d="M48,54.73A21.58,21.58,0,1,1,69.58,33.15,21.6,21.6,0,0,1,48,54.73Zm0-41.15A19.58,19.58,0,1,0,67.58,33.15,19.6,19.6,0,0,0,48,13.58Z"></path>
    <path d="M54.34,43.13a1,1,0,0,1-.46-.11l-5.75-3-5.74,3a1,1,0,0,1-1.06-.08,1,1,0,0,1-.39-1L42,35.57,37.38,31a1,1,0,0,1,.56-1.7l6.42-.93,2.87-5.83a1,1,0,0,1,1.8,0L51.9,28.4l6.42.93a1,1,0,0,1,.56,1.7l-4.65,4.54L55.33,42a1,1,0,0,1-.4,1A1,1,0,0,1,54.34,43.13ZM40.23,31l3.58,3.48a1,1,0,0,1,.28.89l-.84,4.91L47.67,38a1,1,0,0,1,.93,0L53,40.3l-.84-4.91a1,1,0,0,1,.29-.89L56,31l-4.94-.72a1,1,0,0,1-.75-.55l-2.21-4.47-2.21,4.47a1,1,0,0,1-.75.55Z"></path>
    <path d="M55.53,94.5l-.22,0a1,1,0,0,1-.75-.75L47.58,64a1,1,0,0,1,2-.45L56,91.25l6-7.64a1,1,0,0,1,1.16-.3L72.19,87,63.66,56.62a1,1,0,0,1,.7-1.24,1,1,0,0,1,1.23.7l9.08,32.41a1,1,0,0,1-1.35,1.19L63.17,85.45l-6.85,8.67A1,1,0,0,1,55.53,94.5Z"></path>
    <path d="M44.48,85.39A1,1,0,0,1,43.7,85l-6.92-8.67L26.35,81a1,1,0,0,1-1.06-.16,1,1,0,0,1-.31-1l6.29-23.33A1,1,0,0,1,33.2,57l-5.74,21.3,9.21-4.1a1,1,0,0,1,1.19.29l6.06,7.58,3.66-18.54a1,1,0,0,1,2,.39L45.46,84.59a1,1,0,0,1-.74.77A1,1,0,0,1,44.48,85.39Z"></path>
  </symbol> 
  <symbol id="pay" viewBox="0 0 96 96">
    <path d="M48,64.81a6.48,6.48,0,0,1-3.65-1.65A6.37,6.37,0,0,0,42.27,62a6.37,6.37,0,0,0-2.47.31,6.35,6.35,0,0,1-3.92.12,6.4,6.4,0,0,1-2.71-2.9,6.49,6.49,0,0,0-1.49-1.92,6.31,6.31,0,0,0-2.37-.65,6.32,6.32,0,0,1-3.69-1.4,6.32,6.32,0,0,1-1.4-3.69,6.31,6.31,0,0,0-.65-2.37A6.36,6.36,0,0,0,21.65,48a6.4,6.4,0,0,1-2.9-2.71,6.28,6.28,0,0,1,.13-3.92,6.49,6.49,0,0,0,.3-2.46A6.13,6.13,0,0,0,18,36.8a6.44,6.44,0,0,1-1.64-3.65A6.47,6.47,0,0,1,18,29.5a6.1,6.1,0,0,0,1.19-2.08,6.54,6.54,0,0,0-.3-2.47A6.25,6.25,0,0,1,18.75,21a6.42,6.42,0,0,1,2.9-2.72,6.36,6.36,0,0,0,1.92-1.49,6.49,6.49,0,0,0,.66-2.37,6.25,6.25,0,0,1,1.39-3.69,6.31,6.31,0,0,1,3.69-1.39,6.49,6.49,0,0,0,2.37-.66A6.36,6.36,0,0,0,33.17,6.8a6.4,6.4,0,0,1,2.71-2.9A6.28,6.28,0,0,1,39.8,4a6.32,6.32,0,0,0,2.47.3,6.32,6.32,0,0,0,2.08-1.18A6.42,6.42,0,0,1,48,1.5a6.42,6.42,0,0,1,3.65,1.65,6.32,6.32,0,0,0,2.08,1.18A6.34,6.34,0,0,0,56.2,4a6.28,6.28,0,0,1,3.92-.13,6.4,6.4,0,0,1,2.71,2.9,6.36,6.36,0,0,0,1.49,1.92,6.49,6.49,0,0,0,2.37.66,6.31,6.31,0,0,1,3.69,1.39,6.32,6.32,0,0,1,1.4,3.69,6.2,6.2,0,0,0,.65,2.37,6.21,6.21,0,0,0,1.92,1.49A6.42,6.42,0,0,1,77.25,21,6.25,6.25,0,0,1,77.12,25a6.54,6.54,0,0,0-.3,2.47A6.1,6.1,0,0,0,78,29.5a6.47,6.47,0,0,1,1.64,3.65A6.44,6.44,0,0,1,78,36.8a6.13,6.13,0,0,0-1.19,2.09,6.49,6.49,0,0,0,.3,2.46,6.28,6.28,0,0,1,.13,3.92A6.4,6.4,0,0,1,74.35,48a6.22,6.22,0,0,0-1.92,1.5,6.37,6.37,0,0,0-.66,2.37,6.22,6.22,0,0,1-1.39,3.68,6.32,6.32,0,0,1-3.69,1.4,6.31,6.31,0,0,0-2.37.65,6.49,6.49,0,0,0-1.49,1.92,6.4,6.4,0,0,1-2.71,2.9,6.35,6.35,0,0,1-3.92-.12A6.37,6.37,0,0,0,53.73,62a6.37,6.37,0,0,0-2.08,1.19A6.48,6.48,0,0,1,48,64.81Zm-6.19-4.88a4.08,4.08,0,0,1,.85.08,7.5,7.5,0,0,1,2.87,1.54A5.05,5.05,0,0,0,48,62.81a5.05,5.05,0,0,0,2.47-1.26A7.5,7.5,0,0,1,53.34,60a7.87,7.87,0,0,1,3.33.32,4.9,4.9,0,0,0,2.68.23,5,5,0,0,0,1.77-2.09,7.78,7.78,0,0,1,2.09-2.55,7.83,7.83,0,0,1,3.17-1A4.92,4.92,0,0,0,69,54.12a5,5,0,0,0,.83-2.58,7.72,7.72,0,0,1,1-3.18,7.6,7.6,0,0,1,2.54-2.08A5,5,0,0,0,75.4,44.5a5,5,0,0,0-.22-2.68,7.68,7.68,0,0,1-.32-3.32,7.58,7.58,0,0,1,1.53-2.88,5,5,0,0,0,1.26-2.47,5,5,0,0,0-1.26-2.47,7.62,7.62,0,0,1-1.53-2.87,7.74,7.74,0,0,1,.32-3.33,5,5,0,0,0,.22-2.68A5,5,0,0,0,73.32,20a7.56,7.56,0,0,1-2.55-2.09,7.63,7.63,0,0,1-1-3.17A4.94,4.94,0,0,0,69,12.19a5,5,0,0,0-2.59-.84,7.81,7.81,0,0,1-3.17-1,7.89,7.89,0,0,1-2.09-2.55,4.92,4.92,0,0,0-1.77-2.09A5,5,0,0,0,56.67,6a7.89,7.89,0,0,1-3.33.33,7.64,7.64,0,0,1-2.87-1.54A5,5,0,0,0,48,3.5a5,5,0,0,0-2.47,1.26A7.61,7.61,0,0,1,42.65,6.3,7.86,7.86,0,0,1,39.33,6a5,5,0,0,0-2.68-.22,5,5,0,0,0-1.77,2.09,7.75,7.75,0,0,1-2.09,2.54,7.67,7.67,0,0,1-3.17,1,5.1,5.1,0,0,0-2.59.83,5,5,0,0,0-.83,2.59,7.63,7.63,0,0,1-1,3.17A7.75,7.75,0,0,1,22.69,20,5,5,0,0,0,20.6,21.8a5,5,0,0,0,.22,2.68,7.74,7.74,0,0,1,.32,3.33,7.62,7.62,0,0,1-1.53,2.87,5,5,0,0,0-1.26,2.47,5,5,0,0,0,1.26,2.47,7.58,7.58,0,0,1,1.53,2.88,7.68,7.68,0,0,1-.32,3.32,5,5,0,0,0-.22,2.68,4.89,4.89,0,0,0,2.08,1.77,7.68,7.68,0,0,1,2.55,2.09,7.67,7.67,0,0,1,1,3.18A5,5,0,0,0,27,54.12a4.92,4.92,0,0,0,2.59.83,7.67,7.67,0,0,1,3.17,1,7.78,7.78,0,0,1,2.09,2.55,4.89,4.89,0,0,0,1.77,2.08,4.88,4.88,0,0,0,2.68-.22A10.6,10.6,0,0,1,41.81,59.93Z"></path>
    <path d="M48,54.73A21.58,21.58,0,1,1,69.58,33.15,21.6,21.6,0,0,1,48,54.73Zm0-41.15A19.58,19.58,0,1,0,67.58,33.15,19.6,19.6,0,0,0,48,13.58Z"></path>
    <path d="M54.34,43.13a1,1,0,0,1-.46-.11l-5.75-3-5.74,3a1,1,0,0,1-1.06-.08,1,1,0,0,1-.39-1L42,35.57,37.38,31a1,1,0,0,1,.56-1.7l6.42-.93,2.87-5.83a1,1,0,0,1,1.8,0L51.9,28.4l6.42.93a1,1,0,0,1,.56,1.7l-4.65,4.54L55.33,42a1,1,0,0,1-.4,1A1,1,0,0,1,54.34,43.13ZM40.23,31l3.58,3.48a1,1,0,0,1,.28.89l-.84,4.91L47.67,38a1,1,0,0,1,.93,0L53,40.3l-.84-4.91a1,1,0,0,1,.29-.89L56,31l-4.94-.72a1,1,0,0,1-.75-.55l-2.21-4.47-2.21,4.47a1,1,0,0,1-.75.55Z"></path>
    <path d="M55.53,94.5l-.22,0a1,1,0,0,1-.75-.75L47.58,64a1,1,0,0,1,2-.45L56,91.25l6-7.64a1,1,0,0,1,1.16-.3L72.19,87,63.66,56.62a1,1,0,0,1,.7-1.24,1,1,0,0,1,1.23.7l9.08,32.41a1,1,0,0,1-1.35,1.19L63.17,85.45l-6.85,8.67A1,1,0,0,1,55.53,94.5Z"></path>
    <path d="M44.48,85.39A1,1,0,0,1,43.7,85l-6.92-8.67L26.35,81a1,1,0,0,1-1.06-.16,1,1,0,0,1-.31-1l6.29-23.33A1,1,0,0,1,33.2,57l-5.74,21.3,9.21-4.1a1,1,0,0,1,1.19.29l6.06,7.58,3.66-18.54a1,1,0,0,1,2,.39L45.46,84.59a1,1,0,0,1-.74.77A1,1,0,0,1,44.48,85.39Z"></path>
  </symbol>  
</svg>
